<svg version="1.1" id="Layer_1" xmlns="http://www.w3.org/2000/svg" xmlns:xlink="http://www.w3.org/1999/xlink" x="0px" y="0px"
	 width="100%" viewBox="0 0 241 165" enable-background="new 0 0 241 165" xml:space="preserve">
<path fill="#FFFFFF" opacity="0.000000" stroke="none" 
	d="
M153.000000,166.000000 
	C102.000000,166.000000 51.500008,166.000000 1.000007,166.000000 
	C1.000005,111.000008 1.000005,56.000011 1.000002,1.000010 
	C79.999992,1.000000 159.000031,1.028392 237.999817,0.903897 
	C241.424149,0.898501 242.106552,1.574956 242.097397,5.000227 
	C241.957458,57.333183 241.957474,109.666740 242.097397,161.999695 
	C242.106552,165.424805 241.427338,166.121735 237.999420,166.100143 
	C209.833847,165.922729 181.666687,166.000000 153.000000,166.000000 
z"/>
<path fill="#FFFFFF" opacity="1.000000" stroke="none" 
	d="
M114.999931,163.158997 
	C79.181511,163.154083 43.863060,163.128952 8.544733,163.183029 
	C5.743645,163.187317 4.062491,163.189926 4.073344,159.370285 
	C4.217715,108.558861 4.167869,57.746891 4.176589,6.935060 
	C4.176666,6.486859 4.314901,6.038682 4.544065,4.645683 
	C6.563294,6.935971 8.162837,8.700385 9.708432,10.510854 
	C29.915888,34.181313 50.157532,57.822906 70.259239,81.582870 
	C72.518494,84.253265 73.583298,84.038139 75.757225,81.521210 
	C96.643188,57.339828 117.656143,33.268116 138.642670,9.173640 
	C139.823471,7.817960 141.091385,6.538143 142.352600,5.186734 
	C143.870926,6.240023 143.100723,7.679306 143.101883,8.855738 
	C143.150696,58.667736 143.118088,108.479858 143.235977,158.291641 
	C143.244644,161.955948 142.615494,163.472626 138.484802,163.266556 
	C130.840408,162.885208 123.163376,163.158417 114.999931,163.158997 
z"/>
<path fill="#FFFFFF" opacity="1.000000" stroke="none" 
	d="
M179.723572,98.280136 
	C176.657135,94.746506 174.003510,91.299789 170.947357,88.257416 
	C168.539017,85.859932 168.665161,84.305565 170.905594,81.743095 
	C187.111526,63.207752 203.139221,44.516556 219.222366,25.873848 
	C225.524307,18.568962 231.823730,11.261881 238.198822,3.869379 
	C239.835876,5.017370 239.150009,6.626139 239.151031,7.933818 
	C239.189865,58.058147 239.180206,108.182510 239.176865,158.306870 
	C239.176819,158.972977 239.290390,159.664612 239.149658,160.299713 
	C238.884232,161.497528 239.927002,163.129333 238.332230,163.854797 
	C236.565643,164.658417 235.669388,163.190033 234.692047,162.056870 
	C228.607834,155.002670 222.494965,147.973145 216.415634,140.914734 
	C204.256500,126.797356 192.112854,112.666634 179.723572,98.280136 
z"/>
</svg>